<svg xmlns="http://www.w3.org/2000/svg" xmlns:xlink="http://www.w3.org/1999/xlink" viewBox="0,0,256,256" width="24px" height="24px" fill-rule="nonzero"><g transform=""><g fill="#ffffff" fill-rule="nonzero" stroke="none" stroke-width="1" stroke-linecap="butt" stroke-linejoin="miter" stroke-miterlimit="10" stroke-dasharray="" stroke-dashoffset="0" font-family="none" font-weight="none" font-size="none" text-anchor="none" style="mix-blend-mode: normal"><g transform="translate(0,5.33333) scale(10.66667,10.66667)"><path d="M12,1c-3.32381,0 -6,2.67619 -6,6v1c-1.1,0 -2,0.9 -2,2v10c0,1.1 0.9,2 2,2h12c1.1,0 2,-0.9 2,-2v-10c0,-1.1 -0.9,-2 -2,-2v-1c0,-3.32381 -2.67619,-6 -6,-6zM12,3c2.27619,0 4,1.72381 4,4v1h-8v-1c0,-2.27619 1.72381,-4 4,-4zM12,13c1.1,0 2,0.9 2,2c0,1.1 -0.9,2 -2,2c-1.1,0 -2,-0.9 -2,-2c0,-1.1 0.9,-2 2,-2z"></path></g></g></g></svg>